<mxfile host="app.diagrams.net" modified="2023-04-07T14:56:02.794Z" agent="Mozilla/5.0 (Macintosh; Intel Mac OS X 10_15_7) AppleWebKit/537.36 (KHTML, like Gecko) Chrome/111.0.0.0 Safari/537.36" etag="YN2vAzh550w4LQGpOp2y" version="21.1.2" type="github">
  <diagram name="Page-1" id="_gFGdC1oJcc4WMkTPQVc">
    <mxGraphModel dx="954" dy="565" grid="1" gridSize="10" guides="1" tooltips="1" connect="1" arrows="1" fold="1" page="1" pageScale="1" pageWidth="827" pageHeight="1169" math="0" shadow="0">
      <root>
        <mxCell id="0" />
        <mxCell id="1" parent="0" />
      </root>
    </mxGraphModel>
  </diagram>
</mxfile>
